<svg width="22" height="19" viewBox="0 0 22 19" fill="none" xmlns="http://www.w3.org/2000/svg">
<path d="M16.21 7L11.83 0.440001C11.64 0.160001 11.32 0.0200005 11 0.0200005C10.68 0.0200005 10.36 0.160001 10.17 0.450001L5.79 7H1C0.45 7 0 7.45 0 8C0 8.09 0.00999996 8.18 0.04 8.27L2.58 17.54C2.81 18.38 3.58 19 4.5 19H17.5C18.42 19 19.19 18.38 19.43 17.54L21.97 8.27L22 8C22 7.45 21.55 7 21 7H16.21ZM8 7L11 2.6L14 7H8ZM11 15C9.9 15 9 14.1 9 13C9 11.9 9.9 11 11 11C12.1 11 13 11.9 13 13C13 14.1 12.1 15 11 15Z" fill="black"/>
</svg>
